<svg width="69" height="30" viewBox="0 0 69 30" fill="none" xmlns="http://www.w3.org/2000/svg">
<g clip-path="url(#clip0_1_6)">
<path d="M38.082 4.91992C38.082 5.81836 38.0104 6.70378 37.8672 7.57617C37.7305 8.44857 37.5645 9.31771 37.3691 10.1836C37.3431 10.2682 37.3268 10.3398 37.3203 10.3984C37.2812 10.5872 37.2389 10.7826 37.1934 10.9844C37.1543 11.1797 37.0892 11.375 36.998 11.5703C36.9134 11.7331 36.7962 11.8763 36.6465 12C36.5033 12.1172 36.3438 12.1758 36.168 12.1758C36.0964 12.1758 36.0215 12.1595 35.9434 12.127C35.8652 12.0944 35.7806 12.0521 35.6895 12C35.5592 11.9089 35.4616 11.7852 35.3965 11.6289C35.3314 11.4661 35.276 11.3001 35.2305 11.1309L35.2109 11.0625V11.0723C35.1003 10.6491 35.0059 10.2259 34.9277 9.80273C34.8561 9.37956 34.7845 8.95312 34.7129 8.52344C34.6738 8.25651 34.6348 7.99284 34.5957 7.73242C34.5566 7.46549 34.5111 7.20182 34.459 6.94141L34.3223 6.36523C34.2897 6.23503 34.2539 6.09505 34.2148 5.94531C34.1823 5.78906 34.1497 5.64258 34.1172 5.50586C34.0846 5.36914 34.0586 5.2487 34.0391 5.14453C34.0195 5.03385 34.0098 4.95898 34.0098 4.91992C34.0098 4.79622 34.0488 4.71484 34.127 4.67578C34.2116 4.63021 34.306 4.60742 34.4102 4.60742C34.6185 4.60742 34.8008 4.65299 34.957 4.74414C35.1198 4.83529 35.237 4.98503 35.3086 5.19336C35.3477 5.30404 35.3802 5.42122 35.4062 5.54492C35.4388 5.66862 35.4648 5.79232 35.4844 5.91602C35.5951 6.3457 35.6992 6.80143 35.7969 7.2832C35.901 7.75846 35.9889 8.21745 36.0605 8.66016L36.1484 9.1582C36.1549 9.19076 36.1582 9.2168 36.1582 9.23633C36.1582 9.25586 36.1582 9.27214 36.1582 9.28516C36.1647 9.29818 36.168 9.31445 36.168 9.33398C36.1745 9.35352 36.181 9.38281 36.1875 9.42188C36.3307 8.73177 36.4512 8.04167 36.5488 7.35156C36.6465 6.65495 36.6953 5.95508 36.6953 5.25195C36.6953 5.10872 36.6855 4.96875 36.666 4.83203C36.653 4.69531 36.6367 4.55208 36.6172 4.40234C36.5977 4.26562 36.5781 4.12565 36.5586 3.98242C36.5456 3.83268 36.5391 3.68294 36.5391 3.5332C36.5391 3.39648 36.5814 3.30208 36.666 3.25C36.7507 3.19792 36.8548 3.17188 36.9785 3.17188C37.1283 3.17188 37.265 3.18164 37.3887 3.20117C37.5124 3.2207 37.6198 3.25977 37.7109 3.31836C37.8021 3.37044 37.877 3.44857 37.9355 3.55273C37.9941 3.65039 38.0332 3.7806 38.0527 3.94336C38.0658 4.0931 38.0723 4.25586 38.0723 4.43164C38.0788 4.60091 38.082 4.76367 38.082 4.91992ZM42.6133 10.2129C42.6133 10.4082 42.5579 10.61 42.4473 10.8184C42.3431 11.0267 42.2064 11.2188 42.0371 11.3945C41.8678 11.5638 41.6725 11.7038 41.4512 11.8145C41.2363 11.9251 41.0215 11.9805 40.8066 11.9805C40.5007 11.9805 40.237 11.9219 40.0156 11.8047C39.7943 11.681 39.6022 11.5182 39.4395 11.3164C39.2767 11.1081 39.1432 10.8737 39.0391 10.6133C38.9414 10.3529 38.8633 10.0859 38.8047 9.8125C38.7461 9.53255 38.7038 9.25586 38.6777 8.98242C38.6582 8.70247 38.6484 8.44857 38.6484 8.2207C38.6484 8.02539 38.6582 7.79427 38.6777 7.52734C38.7038 7.26042 38.7428 6.98372 38.7949 6.69727C38.8535 6.41081 38.9316 6.1276 39.0293 5.84766C39.127 5.56771 39.2474 5.31706 39.3906 5.0957C39.5404 4.87435 39.7161 4.69531 39.918 4.55859C40.1263 4.42188 40.3639 4.35352 40.6309 4.35352C40.8392 4.35352 41.0247 4.39583 41.1875 4.48047C41.3568 4.5651 41.4967 4.67904 41.6074 4.82227C41.7246 4.95898 41.8125 5.11849 41.8711 5.30078C41.9362 5.48307 41.9688 5.67188 41.9688 5.86719C41.9688 6.12109 41.9102 6.39779 41.793 6.69727C41.6758 6.99674 41.5228 7.28646 41.334 7.56641C41.1517 7.84635 40.9434 8.10026 40.709 8.32812C40.4811 8.54948 40.2533 8.71875 40.0254 8.83594C40.0384 8.95312 40.0645 9.12565 40.1035 9.35352C40.1426 9.57487 40.1947 9.79622 40.2598 10.0176C40.3314 10.2389 40.4128 10.431 40.5039 10.5938C40.6016 10.7565 40.7155 10.8379 40.8457 10.8379C40.9108 10.8379 40.9661 10.8184 41.0117 10.7793C41.0638 10.7402 41.1094 10.6882 41.1484 10.623C41.1875 10.5579 41.2201 10.4863 41.2461 10.4082C41.2786 10.3301 41.3079 10.2552 41.334 10.1836L41.3926 10.0469C41.4056 10.0273 41.4121 10.0143 41.4121 10.0078C41.4186 10.0013 41.4251 9.99154 41.4316 9.97852C41.4772 9.89388 41.5195 9.81576 41.5586 9.74414C41.6042 9.67253 41.666 9.61068 41.7441 9.55859H41.7344C41.7604 9.53255 41.7865 9.51953 41.8125 9.51953C41.8451 9.51302 41.8743 9.50977 41.9004 9.50977C41.972 9.50977 42.0501 9.53255 42.1348 9.57812C42.2194 9.6237 42.2975 9.68229 42.3691 9.75391C42.4408 9.81901 42.4993 9.89388 42.5449 9.97852C42.5905 10.0566 42.6133 10.1348 42.6133 10.2129ZM40.6797 5.90625C40.6797 5.84115 40.6764 5.77279 40.6699 5.70117C40.6634 5.62956 40.6471 5.56771 40.6211 5.51562C40.5299 5.6263 40.4486 5.75977 40.377 5.91602C40.3118 6.06576 40.2565 6.22526 40.2109 6.39453C40.1654 6.55729 40.1263 6.72331 40.0938 6.89258C40.0677 7.06185 40.0482 7.2181 40.0352 7.36133C40.2044 7.15951 40.3542 6.93164 40.4844 6.67773C40.6146 6.41732 40.6797 6.16016 40.6797 5.90625ZM48.043 9.57812C48.043 9.64323 48.0234 9.72135 47.9844 9.8125C47.9518 9.89714 47.9062 9.98828 47.8477 10.0859C47.7956 10.1771 47.737 10.2715 47.6719 10.3691C47.6068 10.4668 47.5449 10.5547 47.4863 10.6328L47.3398 10.8379L47.1934 11.0918L47.0664 11.3262C47.0729 11.4564 47.0827 11.5964 47.0957 11.7461C47.1087 11.8958 47.1217 12.0391 47.1348 12.1758C47.2064 12.8464 47.2682 13.5299 47.3203 14.2266C47.3789 14.9232 47.4082 15.6068 47.4082 16.2773C47.4082 16.6354 47.3789 16.9967 47.3203 17.3613C47.2617 17.7324 47.151 18.0645 46.9883 18.3574C46.832 18.6569 46.6139 18.901 46.334 19.0898C46.054 19.2786 45.696 19.373 45.2598 19.373C44.9603 19.373 44.7064 19.3177 44.498 19.207C44.2897 19.0964 44.1204 18.9466 43.9902 18.7578C43.8665 18.5755 43.7754 18.3607 43.7168 18.1133C43.6582 17.8659 43.6289 17.6087 43.6289 17.3418C43.6289 16.8145 43.6908 16.2806 43.8145 15.7402C43.9382 15.1999 44.0977 14.666 44.293 14.1387C44.4948 13.6113 44.7227 13.0938 44.9766 12.5859C45.2305 12.0846 45.4876 11.6029 45.748 11.1406C45.748 11.1276 45.748 11.1146 45.748 11.1016C45.748 11.082 45.7448 11.0527 45.7383 11.0137C45.6536 11.1699 45.556 11.3327 45.4453 11.502C45.3411 11.6647 45.2207 11.8112 45.084 11.9414C44.9538 12.0716 44.8073 12.179 44.6445 12.2637C44.4883 12.3483 44.3125 12.3906 44.1172 12.3906C43.8438 12.3906 43.6159 12.3255 43.4336 12.1953C43.2513 12.0651 43.1048 11.8991 42.9941 11.6973C42.89 11.4954 42.8151 11.2741 42.7695 11.0332C42.724 10.7923 42.7012 10.5645 42.7012 10.3496C42.7012 10.1022 42.7142 9.85807 42.7402 9.61719C42.7728 9.3763 42.8086 9.14193 42.8477 8.91406C42.9128 8.54948 42.9941 8.1556 43.0918 7.73242C43.196 7.30273 43.3229 6.87956 43.4727 6.46289C43.6224 6.03971 43.7949 5.64258 43.9902 5.27148C44.1921 4.90039 44.4264 4.58464 44.6934 4.32422L44.7715 4.25586C44.8561 4.17122 44.9538 4.08984 45.0645 4.01172C45.1751 3.92708 45.2891 3.88477 45.4062 3.88477C45.4779 3.88477 45.5397 3.9043 45.5918 3.94336C45.6504 3.98242 45.6992 4.03451 45.7383 4.09961C45.7773 4.1582 45.8066 4.22331 45.8262 4.29492C45.8522 4.36654 45.8652 4.4349 45.8652 4.5C45.8652 4.57812 45.8359 4.66276 45.7773 4.75391H45.7969C46.194 4.75391 46.4609 4.9362 46.5977 5.30078C46.6693 5.36589 46.7214 5.44401 46.7539 5.53516C46.793 5.6263 46.8125 5.72396 46.8125 5.82812C46.8125 5.88021 46.8092 5.9388 46.8027 6.00391C46.7962 6.0625 46.7865 6.11784 46.7734 6.16992C46.7604 6.22852 46.7507 6.28385 46.7441 6.33594C46.7376 6.38802 46.7344 6.43685 46.7344 6.48242C46.7344 6.63216 46.7376 6.81771 46.7441 7.03906C46.7507 7.26042 46.7604 7.49154 46.7734 7.73242C46.7865 7.97331 46.7995 8.21094 46.8125 8.44531C46.832 8.67318 46.8483 8.87174 46.8613 9.04102C46.9069 8.98242 46.959 8.93034 47.0176 8.88477C47.0827 8.83919 47.1576 8.81641 47.2422 8.81641C47.3138 8.81641 47.3952 8.84245 47.4863 8.89453C47.584 8.94661 47.6719 9.01172 47.75 9.08984C47.8346 9.16797 47.903 9.2526 47.9551 9.34375C48.0137 9.42839 48.043 9.50651 48.043 9.57812ZM45.3574 5.55469C45.3574 5.51562 45.3574 5.47331 45.3574 5.42773C45.3639 5.38216 45.3737 5.33333 45.3867 5.28125L45.3184 5.36914C45.2663 5.42773 45.2174 5.48307 45.1719 5.53516C45.1263 5.58724 45.084 5.64258 45.0449 5.70117C44.8757 5.94857 44.7259 6.27083 44.5957 6.66797C44.472 7.05859 44.3678 7.47201 44.2832 7.9082C44.1986 8.33789 44.1335 8.76107 44.0879 9.17773C44.0488 9.5944 44.0293 9.95247 44.0293 10.252C44.0293 10.4017 44.0326 10.5514 44.0391 10.7012C44.0456 10.8509 44.0781 10.9974 44.1367 11.1406C44.2279 11.043 44.3027 10.9388 44.3613 10.8281C44.4199 10.7109 44.4753 10.5905 44.5273 10.4668C44.6706 10.1478 44.7943 9.77669 44.8984 9.35352C45.0026 8.93034 45.0872 8.49414 45.1523 8.04492C45.2174 7.5957 45.2663 7.15625 45.2988 6.72656C45.3314 6.29036 45.3509 5.89974 45.3574 5.55469ZM46.0996 15.9844C46.0996 15.5417 46.0898 15.125 46.0703 14.7344C46.0508 14.3503 46.0215 13.9368 45.9824 13.4941C45.8652 13.7741 45.7448 14.0736 45.6211 14.3926C45.5039 14.7181 45.3997 15.0436 45.3086 15.3691C45.2174 15.7012 45.1426 16.0299 45.084 16.3555C45.0254 16.681 44.9961 16.9902 44.9961 17.2832V17.3516C44.9961 17.5013 45.0059 17.6608 45.0254 17.8301C45.0449 18.0059 45.1068 18.1491 45.2109 18.2598H45.3184C45.4486 18.2598 45.556 18.2142 45.6406 18.123C45.7318 18.0384 45.8066 17.9277 45.8652 17.791C45.9238 17.6543 45.9694 17.5013 46.002 17.332C46.0345 17.1628 46.0573 16.9935 46.0703 16.8242C46.0833 16.6549 46.0898 16.4954 46.0898 16.3457C46.0964 16.196 46.0996 16.0755 46.0996 15.9844ZM52.457 11.873C52.457 12.0033 52.4245 12.0911 52.3594 12.1367C52.2943 12.1888 52.2031 12.2148 52.0859 12.2148C51.7799 12.2148 51.5586 12.1335 51.4219 11.9707C51.2917 11.8079 51.194 11.5931 51.1289 11.3262C51.1094 11.235 51.0898 11.1439 51.0703 11.0527C51.0508 10.9551 51.0345 10.8607 51.0215 10.7695C51.0085 10.6849 50.9954 10.6263 50.9824 10.5938C50.9694 10.5612 50.9564 10.4993 50.9434 10.4082C50.8652 10.597 50.7676 10.7956 50.6504 11.0039C50.5397 11.2057 50.4095 11.3945 50.2598 11.5703C50.11 11.7396 49.9408 11.8796 49.752 11.9902C49.5697 12.1009 49.3678 12.1562 49.1465 12.1562C48.9121 12.1562 48.7168 12.1009 48.5605 11.9902C48.4043 11.873 48.2806 11.7298 48.1895 11.5605C48.1048 11.3848 48.043 11.1927 48.0039 10.9844C47.9714 10.776 47.9551 10.5775 47.9551 10.3887C47.9551 9.94596 47.9974 9.46745 48.082 8.95312C48.1732 8.43229 48.2969 7.91471 48.4531 7.40039C48.6094 6.87956 48.7917 6.38151 49 5.90625C49.2083 5.42448 49.4362 5.00456 49.6836 4.64648V4.65625L49.7422 4.56836C49.8138 4.4707 49.8952 4.36654 49.9863 4.25586C50.084 4.13867 50.1979 4.08008 50.3281 4.08008C50.4518 4.08008 50.5592 4.13542 50.6504 4.24609C50.7415 4.35026 50.8066 4.46094 50.8457 4.57812C51.015 4.61068 51.1517 4.65299 51.2559 4.70508C51.36 4.75065 51.4414 4.80924 51.5 4.88086C51.5586 4.95247 51.5977 5.03711 51.6172 5.13477C51.6367 5.22591 51.6465 5.32682 51.6465 5.4375C51.6465 5.48307 51.6465 5.5319 51.6465 5.58398C51.6465 5.63607 51.6432 5.68815 51.6367 5.74023C51.6302 5.79232 51.627 5.85417 51.627 5.92578C51.627 5.9974 51.627 6.0625 51.627 6.12109C51.627 6.1862 51.6367 6.27083 51.6562 6.375C51.6823 6.47917 51.7083 6.58659 51.7344 6.69727L51.8027 7.05859C51.8353 7.2474 51.8613 7.46224 51.8809 7.70312C51.9069 7.94401 51.9362 8.1849 51.9688 8.42578C51.9948 8.67318 52.0208 8.91406 52.0469 9.14844C52.0729 9.3763 52.099 9.58789 52.125 9.7832L52.3594 11.2285L52.3887 11.3945C52.4017 11.4792 52.4147 11.5573 52.4277 11.6289C52.4473 11.7005 52.457 11.7819 52.457 11.873ZM50.2207 6.25781C50.2207 6.24479 50.2174 6.22526 50.2109 6.19922C50.2044 6.16667 50.1979 6.13411 50.1914 6.10156C50.0417 6.42057 49.9082 6.76888 49.791 7.14648C49.6803 7.51758 49.5859 7.89844 49.5078 8.28906C49.4362 8.67318 49.3809 9.06055 49.3418 9.45117C49.3092 9.83529 49.293 10.1999 49.293 10.5449C49.293 10.5775 49.293 10.6068 49.293 10.6328C49.293 10.6589 49.2962 10.6849 49.3027 10.7109V10.7207C49.459 10.4798 49.5924 10.1641 49.7031 9.77344C49.8203 9.3763 49.918 8.96289 49.9961 8.5332C50.0742 8.09701 50.1296 7.67708 50.1621 7.27344C50.2012 6.86328 50.2207 6.52474 50.2207 6.25781ZM54.7031 11.9512C54.7031 12.1009 54.6576 12.1986 54.5664 12.2441C54.4818 12.2897 54.3776 12.3125 54.2539 12.3125C54.1432 12.3125 54.0326 12.3027 53.9219 12.2832C53.8177 12.2702 53.7168 12.2409 53.6191 12.1953C53.528 12.1497 53.4466 12.0879 53.375 12.0098C53.3099 11.9316 53.2643 11.8307 53.2383 11.707C53.1471 11.3164 53.0951 10.9355 53.082 10.5645C53.069 10.1868 53.0625 9.79948 53.0625 9.40234V8.20117C53.0625 7.6543 53.0853 7.08789 53.1309 6.50195C53.1764 5.90951 53.2253 5.33984 53.2773 4.79297C53.2773 4.77344 53.2806 4.75065 53.2871 4.72461C53.2936 4.69857 53.2969 4.67904 53.2969 4.66602C53.3034 4.5944 53.3132 4.51628 53.3262 4.43164C53.3392 4.34701 53.3587 4.27214 53.3848 4.20703C53.4173 4.13542 53.4596 4.07682 53.5117 4.03125C53.5703 3.98568 53.6452 3.96289 53.7363 3.96289C53.8405 3.96289 53.9382 3.98568 54.0293 4.03125C54.127 4.07031 54.2116 4.12565 54.2832 4.19727C54.3548 4.26237 54.4102 4.34375 54.4492 4.44141C54.4948 4.53906 54.5176 4.63997 54.5176 4.74414C54.5176 4.85482 54.5143 4.97852 54.5078 5.11523C54.5013 5.24544 54.4915 5.36914 54.4785 5.48633C54.4785 5.51888 54.4753 5.55469 54.4688 5.59375C54.4688 5.63281 54.4655 5.66862 54.459 5.70117C54.5501 5.51888 54.6543 5.33008 54.7715 5.13477C54.8887 4.93294 55.0221 4.75065 55.1719 4.58789C55.3281 4.41862 55.4974 4.2819 55.6797 4.17773C55.8685 4.07357 56.0768 4.02148 56.3047 4.02148C56.4935 4.02148 56.6497 4.05078 56.7734 4.10938C56.8971 4.16797 56.9948 4.2526 57.0664 4.36328C57.1445 4.46745 57.1966 4.59115 57.2227 4.73438C57.2552 4.8776 57.2715 5.0306 57.2715 5.19336C57.2715 5.41471 57.265 5.63932 57.252 5.86719C57.2389 6.08854 57.2259 6.3099 57.2129 6.53125C57.1934 6.75911 57.1771 6.98372 57.1641 7.20508C57.151 7.42643 57.1445 7.65104 57.1445 7.87891C57.1445 8.15234 57.151 8.43555 57.1641 8.72852C57.1771 9.01497 57.1966 9.29167 57.2227 9.55859C57.2487 9.81901 57.278 10.0566 57.3105 10.2715C57.3431 10.4798 57.3757 10.6426 57.4082 10.7598C57.4342 10.8574 57.4603 10.9714 57.4863 11.1016C57.5189 11.2253 57.5482 11.3555 57.5742 11.4922C57.6068 11.6224 57.6328 11.7493 57.6523 11.873C57.6719 11.9967 57.6816 12.1074 57.6816 12.2051C57.6816 12.3483 57.623 12.4395 57.5059 12.4785C57.3952 12.5176 57.2845 12.5371 57.1738 12.5371C57.0632 12.5371 56.9362 12.5273 56.793 12.5078C56.6562 12.4948 56.5326 12.459 56.4219 12.4004C56.2852 12.3027 56.194 12.166 56.1484 11.9902C56.1094 11.8145 56.0833 11.6419 56.0703 11.4727L56.041 11.209C56.0215 11.0527 55.9954 10.8477 55.9629 10.5938C55.9303 10.3398 55.8978 10.0599 55.8652 9.75391C55.8392 9.44792 55.8164 9.13216 55.7969 8.80664C55.7773 8.47461 55.7676 8.15234 55.7676 7.83984C55.7676 7.5599 55.7773 7.28971 55.7969 7.0293C55.8229 6.76888 55.849 6.50521 55.875 6.23828C55.888 6.10156 55.8978 5.99089 55.9043 5.90625C55.9108 5.82161 55.9206 5.71094 55.9336 5.57422C55.8034 5.78255 55.6732 6.02669 55.543 6.30664C55.4128 6.58659 55.2891 6.87956 55.1719 7.18555C55.0547 7.48503 54.9473 7.77799 54.8496 8.06445C54.7585 8.35091 54.6868 8.60156 54.6348 8.81641L54.5762 9.03125C54.5436 9.13542 54.5143 9.23958 54.4883 9.34375C54.4688 9.44792 54.459 9.54557 54.459 9.63672C54.459 9.75391 54.4655 9.89062 54.4785 10.0469C54.4915 10.1966 54.5078 10.3398 54.5273 10.4766C54.5469 10.6393 54.5697 10.8053 54.5957 10.9746C54.5957 10.9876 54.6022 11.0299 54.6152 11.1016C54.6283 11.1732 54.6413 11.2578 54.6543 11.3555C54.6673 11.4531 54.6771 11.5573 54.6836 11.668C54.6966 11.7721 54.7031 11.8665 54.7031 11.9512Z" fill="white"/>
<path d="M38.9609 21.4824C38.9609 21.7493 38.9479 22.0456 38.9219 22.3711C38.8958 22.6901 38.8568 23.0221 38.8047 23.3672C38.7526 23.7122 38.681 24.0605 38.5898 24.4121C38.5052 24.7572 38.401 25.0892 38.2773 25.4082C38.1536 25.7272 38.0072 26.0234 37.8379 26.2969C37.6751 26.5638 37.4896 26.7884 37.2812 26.9707C37.1315 27.1009 36.9622 27.2051 36.7734 27.2832C36.5911 27.3678 36.4023 27.4102 36.207 27.4102C36.1354 27.4102 36.0605 27.3971 35.9824 27.3711C35.9043 27.3516 35.8457 27.2995 35.8066 27.2148C35.6634 27.2018 35.5202 27.1725 35.377 27.127C35.2402 27.0879 35.1263 26.9967 35.0352 26.8535C35.0156 26.8079 34.9993 26.7526 34.9863 26.6875C34.9733 26.6224 34.9603 26.554 34.9473 26.4824C34.9408 26.4499 34.9342 26.4206 34.9277 26.3945C34.9212 26.362 34.9147 26.3327 34.9082 26.3066C34.7194 25.1348 34.5892 23.9629 34.5176 22.791C34.4525 21.6191 34.4199 20.4375 34.4199 19.2461C34.4199 19.1419 34.4199 18.9596 34.4199 18.6992C34.4199 18.4388 34.4199 18.1426 34.4199 17.8105C34.4264 17.4785 34.4297 17.1302 34.4297 16.7656C34.4362 16.401 34.4427 16.0592 34.4492 15.7402C34.4557 15.4212 34.4655 15.1478 34.4785 14.9199C34.4915 14.6855 34.5046 14.5358 34.5176 14.4707C34.5436 14.3796 34.5794 14.3047 34.625 14.2461C34.6706 14.1875 34.7487 14.1582 34.8594 14.1582C35.1654 14.1582 35.3835 14.2559 35.5137 14.4512C35.6504 14.64 35.7188 14.8743 35.7188 15.1543V17.6641C35.7188 17.9701 35.7188 18.2467 35.7188 18.4941C35.7188 18.735 35.7188 18.9727 35.7188 19.207C35.7253 19.4349 35.7318 19.6725 35.7383 19.9199C35.7448 20.1608 35.7546 20.431 35.7676 20.7305C35.8457 20.5547 35.9401 20.3822 36.0508 20.2129C36.168 20.0436 36.2982 19.8906 36.4414 19.7539C36.5846 19.6172 36.7441 19.5065 36.9199 19.4219C37.0957 19.3372 37.291 19.2949 37.5059 19.2949C37.8184 19.2949 38.069 19.3633 38.2578 19.5C38.4531 19.6367 38.5996 19.8125 38.6973 20.0273C38.8014 20.2357 38.8698 20.4701 38.9023 20.7305C38.9414 20.9909 38.9609 21.2415 38.9609 21.4824ZM37.6133 21.2578C37.6133 21.1276 37.6068 20.9844 37.5938 20.8281C37.5872 20.6719 37.5482 20.5352 37.4766 20.418C37.418 20.4635 37.3659 20.5124 37.3203 20.5645C37.2812 20.6165 37.2389 20.6751 37.1934 20.7402L37.1738 20.7695V20.7598C36.9915 21.0592 36.8418 21.4076 36.7246 21.8047C36.6139 22.2018 36.5228 22.6152 36.4512 23.0449C36.3861 23.4681 36.3405 23.8913 36.3145 24.3145C36.2884 24.7311 36.2754 25.1087 36.2754 25.4473C36.2754 25.5189 36.2754 25.6263 36.2754 25.7695C36.2819 25.9062 36.2949 26.0202 36.3145 26.1113C36.5684 25.8965 36.7767 25.584 36.9395 25.1738C37.1087 24.7572 37.2422 24.3112 37.3398 23.8359C37.444 23.3542 37.5156 22.8822 37.5547 22.4199C37.5938 21.9577 37.6133 21.5703 37.6133 21.2578ZM43.8242 26.873C43.8242 27.0033 43.7917 27.0911 43.7266 27.1367C43.6615 27.1888 43.5703 27.2148 43.4531 27.2148C43.1471 27.2148 42.9258 27.1335 42.7891 26.9707C42.6589 26.8079 42.5612 26.5931 42.4961 26.3262C42.4766 26.235 42.457 26.1439 42.4375 26.0527C42.418 25.9551 42.4017 25.8607 42.3887 25.7695C42.3757 25.6849 42.3626 25.6263 42.3496 25.5938C42.3366 25.5612 42.3236 25.4993 42.3105 25.4082C42.2324 25.597 42.1348 25.7956 42.0176 26.0039C41.9069 26.2057 41.7767 26.3945 41.627 26.5703C41.4772 26.7396 41.3079 26.8796 41.1191 26.9902C40.9368 27.1009 40.735 27.1562 40.5137 27.1562C40.2793 27.1562 40.084 27.1009 39.9277 26.9902C39.7715 26.873 39.6478 26.7298 39.5566 26.5605C39.472 26.3848 39.4102 26.1927 39.3711 25.9844C39.3385 25.776 39.3223 25.5775 39.3223 25.3887C39.3223 24.946 39.3646 24.4674 39.4492 23.9531C39.5404 23.4323 39.6641 22.9147 39.8203 22.4004C39.9766 21.8796 40.1589 21.3815 40.3672 20.9062C40.5755 20.4245 40.8034 20.0046 41.0508 19.6465V19.6562L41.1094 19.5684C41.181 19.4707 41.2624 19.3665 41.3535 19.2559C41.4512 19.1387 41.5651 19.0801 41.6953 19.0801C41.819 19.0801 41.9264 19.1354 42.0176 19.2461C42.1087 19.3503 42.1738 19.4609 42.2129 19.5781C42.3822 19.6107 42.5189 19.653 42.623 19.7051C42.7272 19.7507 42.8086 19.8092 42.8672 19.8809C42.9258 19.9525 42.9648 20.0371 42.9844 20.1348C43.0039 20.2259 43.0137 20.3268 43.0137 20.4375C43.0137 20.4831 43.0137 20.5319 43.0137 20.584C43.0137 20.6361 43.0104 20.6882 43.0039 20.7402C42.9974 20.7923 42.9941 20.8542 42.9941 20.9258C42.9941 20.9974 42.9941 21.0625 42.9941 21.1211C42.9941 21.1862 43.0039 21.2708 43.0234 21.375C43.0495 21.4792 43.0755 21.5866 43.1016 21.6973L43.1699 22.0586C43.2025 22.2474 43.2285 22.4622 43.248 22.7031C43.2741 22.944 43.3034 23.1849 43.3359 23.4258C43.362 23.6732 43.388 23.9141 43.4141 24.1484C43.4401 24.3763 43.4661 24.5879 43.4922 24.7832L43.7266 26.2285L43.7559 26.3945C43.7689 26.4792 43.7819 26.5573 43.7949 26.6289C43.8145 26.7005 43.8242 26.7819 43.8242 26.873ZM41.5879 21.2578C41.5879 21.2448 41.5846 21.2253 41.5781 21.1992C41.5716 21.1667 41.5651 21.1341 41.5586 21.1016C41.4089 21.4206 41.2754 21.7689 41.1582 22.1465C41.0475 22.5176 40.9531 22.8984 40.875 23.2891C40.8034 23.6732 40.748 24.0605 40.709 24.4512C40.6764 24.8353 40.6602 25.1999 40.6602 25.5449C40.6602 25.5775 40.6602 25.6068 40.6602 25.6328C40.6602 25.6589 40.6634 25.6849 40.6699 25.7109V25.7207C40.8262 25.4798 40.9596 25.1641 41.0703 24.7734C41.1875 24.3763 41.2852 23.9629 41.3633 23.5332C41.4414 23.097 41.4967 22.6771 41.5293 22.2734C41.5684 21.8633 41.5879 21.5247 41.5879 21.2578ZM48.3164 24.8125C48.3164 24.9492 48.2936 25.0892 48.248 25.2324C48.2025 25.3757 48.1504 25.5124 48.0918 25.6426C48.0137 25.8314 47.9193 26.0169 47.8086 26.1992C47.6979 26.375 47.571 26.5345 47.4277 26.6777C47.2845 26.8145 47.1217 26.9251 46.9395 27.0098C46.7572 27.0944 46.5521 27.1367 46.3242 27.1367C45.9206 27.1367 45.5853 27.0358 45.3184 26.834C45.0514 26.6322 44.8398 26.3783 44.6836 26.0723C44.5273 25.7663 44.4167 25.431 44.3516 25.0664C44.293 24.7018 44.2637 24.3568 44.2637 24.0312C44.2637 23.7904 44.2734 23.5072 44.293 23.1816C44.3125 22.8496 44.3483 22.5078 44.4004 22.1562C44.459 21.8047 44.5404 21.4564 44.6445 21.1113C44.7552 20.7663 44.8952 20.4603 45.0645 20.1934C45.2337 19.9199 45.4388 19.6986 45.6797 19.5293C45.9271 19.36 46.2201 19.2754 46.5586 19.2754C46.6302 19.2754 46.7344 19.2884 46.8711 19.3145C47.0078 19.3405 47.1413 19.3796 47.2715 19.4316C47.4082 19.4772 47.5254 19.5423 47.623 19.627C47.7272 19.7051 47.7793 19.7962 47.7793 19.9004C47.7793 19.998 47.7337 20.0729 47.6426 20.125C47.5579 20.1771 47.4538 20.2161 47.3301 20.2422C47.2129 20.2617 47.0892 20.2747 46.959 20.2812C46.8353 20.2812 46.7344 20.2812 46.6562 20.2812H46.4805C46.2982 20.444 46.1484 20.6849 46.0312 21.0039C45.9141 21.3164 45.8229 21.6517 45.7578 22.0098C45.6927 22.3678 45.6471 22.7227 45.6211 23.0742C45.5951 23.4193 45.582 23.7025 45.582 23.9238C45.582 24.2363 45.6048 24.5456 45.6504 24.8516C45.7025 25.151 45.8034 25.4342 45.9531 25.7012C45.9857 25.7598 46.0312 25.8281 46.0898 25.9062C46.1549 25.9779 46.2266 26.0137 46.3047 26.0137C46.3633 26.0137 46.4219 25.9648 46.4805 25.8672C46.5456 25.7695 46.6042 25.6556 46.6562 25.5254C46.7083 25.3952 46.7507 25.2682 46.7832 25.1445C46.8158 25.0208 46.8385 24.9297 46.8516 24.8711C46.8581 24.8451 46.8613 24.8158 46.8613 24.7832C46.8613 24.7507 46.8613 24.7181 46.8613 24.6855C46.8613 24.627 46.8613 24.5716 46.8613 24.5195C46.8678 24.4609 46.8776 24.4154 46.8906 24.3828C46.9362 24.2721 46.9948 24.1973 47.0664 24.1582C47.1445 24.1191 47.2389 24.0996 47.3496 24.0996C47.4473 24.0996 47.5514 24.1126 47.6621 24.1387C47.7728 24.1647 47.877 24.207 47.9746 24.2656C48.0723 24.3242 48.1536 24.3991 48.2188 24.4902C48.2839 24.5814 48.3164 24.6888 48.3164 24.8125ZM53.5508 27.1465C53.5508 27.2181 53.5117 27.2832 53.4336 27.3418C53.3555 27.4004 53.2643 27.4492 53.1602 27.4883C53.0625 27.5273 52.9616 27.5566 52.8574 27.5762C52.7533 27.6022 52.6719 27.6152 52.6133 27.6152C52.5026 27.6152 52.4017 27.5924 52.3105 27.5469C52.2194 27.5078 52.1348 27.4557 52.0566 27.3906C51.9785 27.3255 51.9036 27.2539 51.832 27.1758C51.7669 27.0977 51.7051 27.0195 51.6465 26.9414C51.4186 26.6615 51.1842 26.349 50.9434 26.0039C50.7025 25.6589 50.4876 25.3301 50.2988 25.0176C50.2988 25.0436 50.3021 25.0762 50.3086 25.1152C50.3151 25.1543 50.3184 25.1868 50.3184 25.2129C50.3314 25.3496 50.3411 25.4863 50.3477 25.623C50.3607 25.7533 50.377 25.8867 50.3965 26.0234C50.403 26.1016 50.4095 26.1797 50.416 26.2578C50.429 26.3294 50.4421 26.4076 50.4551 26.4922C50.4681 26.5964 50.4811 26.7005 50.4941 26.8047C50.5072 26.9089 50.5137 27.0163 50.5137 27.127C50.5137 27.2637 50.4746 27.3548 50.3965 27.4004C50.3184 27.4525 50.2142 27.4785 50.084 27.4785C49.9928 27.4785 49.8952 27.472 49.791 27.459C49.6868 27.446 49.5859 27.4199 49.4883 27.3809C49.3906 27.3418 49.3027 27.2897 49.2246 27.2246C49.1465 27.1595 49.0879 27.0749 49.0488 26.9707C49.0293 26.8926 49.0098 26.7461 48.9902 26.5312C48.9707 26.3164 48.9544 26.0788 48.9414 25.8184C48.9284 25.5514 48.9154 25.2845 48.9023 25.0176C48.8958 24.7507 48.8893 24.5293 48.8828 24.3535C48.8828 24.3145 48.8796 24.2819 48.873 24.2559C48.873 24.2298 48.873 24.2038 48.873 24.1777C48.821 24.1322 48.7754 24.0768 48.7363 24.0117C48.6973 23.9466 48.6777 23.8848 48.6777 23.8262C48.6777 23.7415 48.694 23.6667 48.7266 23.6016C48.7591 23.5365 48.7949 23.4746 48.834 23.416C48.7949 22.6152 48.7754 21.8177 48.7754 21.0234C48.7754 20.3659 48.7819 19.7148 48.7949 19.0703C48.8145 18.4193 48.8307 17.7682 48.8438 17.1172L48.873 15.8086C48.8796 15.7435 48.8828 15.6589 48.8828 15.5547C48.8828 15.4505 48.8828 15.3398 48.8828 15.2227C48.8828 15.0794 48.8828 14.9297 48.8828 14.7734C48.8828 14.6172 48.8861 14.4707 48.8926 14.334C48.8991 14.1973 48.9056 14.0736 48.9121 13.9629C48.9186 13.8522 48.9316 13.7708 48.9512 13.7188V13.7285C48.9772 13.6309 49.013 13.5592 49.0586 13.5137C49.1042 13.4681 49.1823 13.4453 49.293 13.4453C49.5664 13.4453 49.778 13.5267 49.9277 13.6895C50.0775 13.8522 50.1523 14.0703 50.1523 14.3438C50.1523 14.7799 50.1491 15.2161 50.1426 15.6523C50.1426 16.082 50.1393 16.515 50.1328 16.9512C50.1263 17.3874 50.1198 17.8236 50.1133 18.2598C50.1133 18.6895 50.1133 19.1224 50.1133 19.5586C50.1133 19.7148 50.1133 19.8743 50.1133 20.0371C50.1198 20.1934 50.123 20.3529 50.123 20.5156C50.1296 20.6458 50.1328 20.7793 50.1328 20.916C50.1328 21.0527 50.1328 21.196 50.1328 21.3457L51.1875 19.666V19.6758L51.2754 19.5C51.2949 19.4674 51.3047 19.4447 51.3047 19.4316C51.3112 19.4186 51.3177 19.4023 51.3242 19.3828C51.3372 19.3568 51.36 19.3177 51.3926 19.2656C51.4316 19.2135 51.4967 19.1354 51.5879 19.0312C51.6204 18.9987 51.6595 18.9694 51.7051 18.9434C51.7507 18.9173 51.8092 18.9043 51.8809 18.9043C51.9525 18.9043 52.0241 18.9271 52.0957 18.9727C52.1738 19.0117 52.2422 19.0638 52.3008 19.1289C52.3594 19.194 52.4082 19.2656 52.4473 19.3438C52.4863 19.4219 52.5059 19.4935 52.5059 19.5586C52.5059 19.6107 52.4766 19.7018 52.418 19.832C52.3594 19.9557 52.2812 20.1087 52.1836 20.291C52.0924 20.4733 51.9883 20.6719 51.8711 20.8867C51.7539 21.0951 51.6302 21.3066 51.5 21.5215C51.3763 21.7363 51.2559 21.9447 51.1387 22.1465C51.0215 22.3483 50.9173 22.5273 50.8262 22.6836L50.5723 23.0938C50.722 23.3542 50.8945 23.6439 51.0898 23.9629C51.2917 24.2754 51.5033 24.5911 51.7246 24.9102C51.946 25.2292 52.1706 25.5352 52.3984 25.8281C52.6328 26.1211 52.8607 26.3783 53.082 26.5996L53.1797 26.6777C53.2578 26.7363 53.3392 26.8079 53.4238 26.8926C53.5085 26.9707 53.5508 27.0553 53.5508 27.1465ZM57.0273 25.2129C57.0273 25.4082 56.972 25.61 56.8613 25.8184C56.7572 26.0267 56.6204 26.2188 56.4512 26.3945C56.2819 26.5638 56.0866 26.7038 55.8652 26.8145C55.6504 26.9251 55.4355 26.9805 55.2207 26.9805C54.9147 26.9805 54.651 26.9219 54.4297 26.8047C54.2083 26.681 54.0163 26.5182 53.8535 26.3164C53.6908 26.1081 53.5573 25.8737 53.4531 25.6133C53.3555 25.3529 53.2773 25.0859 53.2188 24.8125C53.1602 24.5326 53.1178 24.2559 53.0918 23.9824C53.0723 23.7025 53.0625 23.4486 53.0625 23.2207C53.0625 23.0254 53.0723 22.7943 53.0918 22.5273C53.1178 22.2604 53.1569 21.9837 53.209 21.6973C53.2676 21.4108 53.3457 21.1276 53.4434 20.8477C53.541 20.5677 53.6615 20.3171 53.8047 20.0957C53.9544 19.8743 54.1302 19.6953 54.332 19.5586C54.5404 19.4219 54.778 19.3535 55.0449 19.3535C55.2533 19.3535 55.4388 19.3958 55.6016 19.4805C55.7708 19.5651 55.9108 19.679 56.0215 19.8223C56.1387 19.959 56.2266 20.1185 56.2852 20.3008C56.3503 20.4831 56.3828 20.6719 56.3828 20.8672C56.3828 21.1211 56.3242 21.3978 56.207 21.6973C56.0898 21.9967 55.9368 22.2865 55.748 22.5664C55.5658 22.8464 55.3574 23.1003 55.123 23.3281C54.8952 23.5495 54.6673 23.7188 54.4395 23.8359C54.4525 23.9531 54.4785 24.1257 54.5176 24.3535C54.5566 24.5749 54.6087 24.7962 54.6738 25.0176C54.7454 25.2389 54.8268 25.431 54.918 25.5938C55.0156 25.7565 55.1296 25.8379 55.2598 25.8379C55.3249 25.8379 55.3802 25.8184 55.4258 25.7793C55.4779 25.7402 55.5234 25.6882 55.5625 25.623C55.6016 25.5579 55.6341 25.4863 55.6602 25.4082C55.6927 25.3301 55.722 25.2552 55.748 25.1836L55.8066 25.0469C55.8197 25.0273 55.8262 25.0143 55.8262 25.0078C55.8327 25.0013 55.8392 24.9915 55.8457 24.9785C55.8913 24.8939 55.9336 24.8158 55.9727 24.7441C56.0182 24.6725 56.0801 24.6107 56.1582 24.5586H56.1484C56.1745 24.5326 56.2005 24.5195 56.2266 24.5195C56.2591 24.513 56.2884 24.5098 56.3145 24.5098C56.3861 24.5098 56.4642 24.5326 56.5488 24.5781C56.6335 24.6237 56.7116 24.6823 56.7832 24.7539C56.8548 24.819 56.9134 24.8939 56.959 24.9785C57.0046 25.0566 57.0273 25.1348 57.0273 25.2129ZM55.0938 20.9062C55.0938 20.8411 55.0905 20.7728 55.084 20.7012C55.0775 20.6296 55.0612 20.5677 55.0352 20.5156C54.944 20.6263 54.8626 20.7598 54.791 20.916C54.7259 21.0658 54.6706 21.2253 54.625 21.3945C54.5794 21.5573 54.5404 21.7233 54.5078 21.8926C54.4818 22.0618 54.4622 22.2181 54.4492 22.3613C54.6185 22.1595 54.7682 21.9316 54.8984 21.6777C55.0286 21.4173 55.0938 21.1602 55.0938 20.9062ZM59.0977 26.9512C59.0977 27.1009 59.0521 27.1986 58.9609 27.2441C58.8763 27.2897 58.7721 27.3125 58.6484 27.3125C58.5378 27.3125 58.4271 27.3027 58.3164 27.2832C58.2122 27.2702 58.1113 27.2409 58.0137 27.1953C57.9225 27.1497 57.8411 27.0879 57.7695 27.0098C57.7044 26.9316 57.6589 26.8307 57.6328 26.707C57.5417 26.3164 57.4896 25.9355 57.4766 25.5645C57.4635 25.1868 57.457 24.7995 57.457 24.4023V23.2012C57.457 22.6543 57.4798 22.0879 57.5254 21.502C57.571 20.9095 57.6198 20.3398 57.6719 19.793C57.6719 19.7734 57.6751 19.7507 57.6816 19.7246C57.6882 19.6986 57.6914 19.679 57.6914 19.666C57.6979 19.5944 57.7077 19.5163 57.7207 19.4316C57.7337 19.347 57.7533 19.2721 57.7793 19.207C57.8118 19.1354 57.8542 19.0768 57.9062 19.0312C57.9648 18.9857 58.0397 18.9629 58.1309 18.9629C58.235 18.9629 58.3327 18.9857 58.4238 19.0312C58.5215 19.0703 58.6061 19.1257 58.6777 19.1973C58.7493 19.2624 58.8047 19.3438 58.8438 19.4414C58.8893 19.5391 58.9121 19.64 58.9121 19.7441C58.9121 19.8548 58.9089 19.9785 58.9023 20.1152C58.8958 20.2454 58.8861 20.3691 58.873 20.4863C58.873 20.5189 58.8698 20.5547 58.8633 20.5938C58.8633 20.6328 58.86 20.6686 58.8535 20.7012C58.9447 20.5189 59.0488 20.3301 59.166 20.1348C59.2832 19.9329 59.4167 19.7507 59.5664 19.5879C59.7227 19.4186 59.8919 19.2819 60.0742 19.1777C60.263 19.0736 60.4714 19.0215 60.6992 19.0215C60.888 19.0215 61.0443 19.0508 61.168 19.1094C61.2917 19.168 61.3893 19.2526 61.4609 19.3633C61.5391 19.4674 61.5911 19.5911 61.6172 19.7344C61.6497 19.8776 61.666 20.0306 61.666 20.1934C61.666 20.4147 61.6595 20.6393 61.6465 20.8672C61.6335 21.0885 61.6204 21.3099 61.6074 21.5312C61.5879 21.7591 61.5716 21.9837 61.5586 22.2051C61.5456 22.4264 61.5391 22.651 61.5391 22.8789C61.5391 23.1523 61.5456 23.4355 61.5586 23.7285C61.5716 24.015 61.5911 24.2917 61.6172 24.5586C61.6432 24.819 61.6725 25.0566 61.7051 25.2715C61.7376 25.4798 61.7702 25.6426 61.8027 25.7598C61.8288 25.8574 61.8548 25.9714 61.8809 26.1016C61.9134 26.2253 61.9427 26.3555 61.9688 26.4922C62.0013 26.6224 62.0273 26.7493 62.0469 26.873C62.0664 26.9967 62.0762 27.1074 62.0762 27.2051C62.0762 27.3483 62.0176 27.4395 61.9004 27.4785C61.7897 27.5176 61.679 27.5371 61.5684 27.5371C61.4577 27.5371 61.3307 27.5273 61.1875 27.5078C61.0508 27.4948 60.9271 27.459 60.8164 27.4004C60.6797 27.3027 60.5885 27.166 60.543 26.9902C60.5039 26.8145 60.4779 26.6419 60.4648 26.4727L60.4355 26.209C60.416 26.0527 60.39 25.8477 60.3574 25.5938C60.3249 25.3398 60.2923 25.0599 60.2598 24.7539C60.2337 24.4479 60.2109 24.1322 60.1914 23.8066C60.1719 23.4746 60.1621 23.1523 60.1621 22.8398C60.1621 22.5599 60.1719 22.2897 60.1914 22.0293C60.2174 21.7689 60.2435 21.5052 60.2695 21.2383C60.2826 21.1016 60.2923 20.9909 60.2988 20.9062C60.3053 20.8216 60.3151 20.7109 60.3281 20.5742C60.1979 20.7826 60.0677 21.0267 59.9375 21.3066C59.8073 21.5866 59.6836 21.8796 59.5664 22.1855C59.4492 22.485 59.3418 22.778 59.2441 23.0645C59.153 23.3509 59.0814 23.6016 59.0293 23.8164L58.9707 24.0312C58.9382 24.1354 58.9089 24.2396 58.8828 24.3438C58.8633 24.4479 58.8535 24.5456 58.8535 24.6367C58.8535 24.7539 58.86 24.8906 58.873 25.0469C58.8861 25.1966 58.9023 25.3398 58.9219 25.4766C58.9414 25.6393 58.9642 25.8053 58.9902 25.9746C58.9902 25.9876 58.9967 26.0299 59.0098 26.1016C59.0228 26.1732 59.0358 26.2578 59.0488 26.3555C59.0618 26.4531 59.0716 26.5573 59.0781 26.668C59.0911 26.7721 59.0977 26.8665 59.0977 26.9512Z" fill="white"/>
<path d="M17.34 24.36C17.2067 24.64 17.0467 24.82 16.86 24.9C16.6867 24.9667 16.4867 25 16.26 25C15.7667 25 15.42 24.7867 15.22 24.36L7.58 7.72C7.36666 7.2 7.52666 6.84 8.06 6.64C8.56666 6.42667 8.92666 6.57333 9.14 7.08L16.9 24H15.7L23.9 7.08C24.02 6.81333 24.1733 6.64667 24.36 6.58C24.5467 6.51333 24.7667 6.53333 25.02 6.64C25.5533 6.86667 25.7 7.24 25.46 7.76L17.34 24.36Z" fill="white"/>
<path d="M25.1233 15.8851L22.1329 15.06L24.3033 9.84291L26.5702 13.4585C27.0525 14.2673 27.1289 14.9266 26.7993 15.4361C26.4697 15.9457 25.9111 16.0954 25.1233 15.8851ZM18.8532 15.7152L20.4207 5.74202C20.5011 5.33759 20.6619 5.06258 20.903 4.91699C21.1442 4.77139 21.4738 4.77948 21.8918 4.94125L23.5075 5.59642C23.8451 5.72584 24.0742 5.91997 24.1948 6.1788C24.3154 6.43763 24.3033 6.745 24.1586 7.10089L20.5895 15.7152H18.8532ZM12.3902 15.7152L8.82108 7.10089C8.64423 6.745 8.62011 6.43763 8.74873 6.1788C8.87735 5.91997 9.11851 5.72584 9.4722 5.59642L11.1121 4.94125C11.4658 4.79566 11.7712 4.77948 12.0285 4.89272C12.2857 5.00596 12.4465 5.28906 12.5108 5.74202L14.1506 15.7152H12.3902ZM7.97703 15.8851C7.18925 16.1277 6.61048 15.9862 6.2407 15.4604C5.87093 14.9347 5.9272 14.2673 6.40951 13.4585L8.65227 9.84291L10.8709 15.06L7.97703 15.8851ZM15.3564 15.7152L13.6201 4.57727C13.5236 4.0596 13.6201 3.66731 13.9095 3.40038C14.1989 3.13346 14.6008 3 15.1153 3H17.8886C18.403 3 18.7969 3.13346 19.0702 3.40038C19.3436 3.66731 19.44 4.0596 19.3596 4.57727L17.6233 15.7152H15.3564Z" fill="#FFB100"/>
<path d="M23.4606 5.71226L23.4605 5.71228L23.4628 5.71314C23.7786 5.83419 23.978 6.00943 24.0815 6.23158C24.1828 6.44904 24.1792 6.71828 24.043 7.05337C24.043 7.05352 24.0429 7.05367 24.0429 7.05382L20.506 15.5902H18.9994L20.5438 5.76393C20.6207 5.37925 20.7687 5.1441 20.9676 5.024C21.1599 4.90795 21.4428 4.90173 21.8457 5.05747C21.846 5.05759 21.8463 5.05771 21.8467 5.05783L23.4606 5.71226ZM12.3874 5.7623L14.0034 15.5902H12.4737L8.93656 7.05305L8.93683 7.05294L8.93302 7.04527C8.76659 6.71035 8.75544 6.44621 8.86067 6.23442C8.97114 6.01212 9.1821 5.83568 9.51515 5.71381L9.51517 5.71386L9.51858 5.7125L11.1584 5.05733L11.1584 5.05734L11.1596 5.05684C11.4936 4.91937 11.7619 4.91197 11.9781 5.00713C12.1755 5.09403 12.3248 5.3216 12.387 5.75959L12.387 5.75959L12.3874 5.7623ZM7.94276 15.7648L7.94275 15.7648L7.94023 15.7656C7.56 15.8827 7.24241 15.9032 6.98181 15.8395C6.72421 15.7765 6.51192 15.6288 6.34295 15.3885C6.01425 14.9211 6.04627 14.3122 6.51631 13.5235L8.63151 10.1135L10.7005 14.9786L7.94276 15.7648ZM13.7436 4.55801L13.7437 4.558L13.743 4.55437C13.6514 4.063 13.7468 3.7205 13.9942 3.49227C14.2542 3.25252 14.6223 3.125 15.1153 3.125H17.8886C18.382 3.125 18.7401 3.25269 18.9829 3.48981C19.2174 3.7188 19.3128 4.06429 19.2361 4.55809L17.5163 15.5902H15.4634L13.7436 4.55801ZM25.1555 15.7643L22.3028 14.9772L24.3259 10.1142L26.4635 13.5237C26.9357 14.316 26.9853 14.9184 26.6944 15.3683C26.5455 15.5984 26.3486 15.7434 26.1008 15.8098C25.8496 15.8771 25.5367 15.866 25.156 15.7644C25.1559 15.7644 25.1557 15.7643 25.1555 15.7643Z" stroke="black" stroke-width="0.25"/>
</g>
<defs>
<clipPath id="clip0_1_6">
<rect width="69" height="30" fill="white"/>
</clipPath>
</defs>
</svg>
